<?xml version="1.0" encoding="utf-8"?>
<!-- Generator: Adobe Illustrator 27.5.0, SVG Export Plug-In . SVG Version: 6.00 Build 0)  -->
<svg version="1.1" id="Capa_1" xmlns="http://www.w3.org/2000/svg" xmlns:xlink="http://www.w3.org/1999/xlink" x="0px" y="0px"
	 viewBox="0 0 2122 2122" style="enable-background:new 0 0 2122 2122;" xml:space="preserve">
<g>
	<path style="fill:#006400;" d="M683.584,1513.105c-20.376,14.057-98.806,69.354-141.016,99.14
		c-16.201,7.467-32.334,15.081-48.405,22.826c18.985-19.949,37.877-39.986,56.574-60.205
		c55.77-60.311,110.308-121.761,163.648-184.236c77.355-26.715,154.176-55.008,230.129-85.493
		c12.423-4.986,24.814-10.054,37.188-15.159c43.953-6.552,158.998-23.732,186.277-28.099
		c138.739-22.217,276.575-62.969,395.632-139.407c151.333-97.162,262.33-244.378,369.99-388.431
		c-203.465-5.786-408.287,53.957-576.733,168.228c-83.571,56.694-157.772,125.906-231.495,194.923
		c-22.055,20.648-103.226,122.399-141.119,170.306c-6.998,2.909-13.996,5.816-21.009,8.686
		c-73.793,30.201-148.448,58.263-223.655,84.736c20.562-24.381,40.94-48.917,61.14-73.597
		c53.338-36.445,152.634-104.35,178.048-122.115c144.105-100.732,277.079-221.849,369.43-372.904
		c117.385-192.002,162.032-418.358,204.647-639.328c-232.275,104.526-430.315,283.588-557.635,504.195
		c-63.166,109.45-108.949,227.888-154.299,345.84c-15.076,39.208-57.696,231.026-70.705,290.285
		c-22.553,27.353-45.322,54.532-68.322,81.51c-0.606,0.556-1.154,1.17-1.592,1.874c-23.569,27.624-47.385,55.035-71.423,82.249
		c-1.78-16.251-3.48-32.512-5.103-48.781c22.731-46.087,89.579-182.583,99.556-213.997c30.573-96.247,61.117-193.014,76.327-292.847
		c30.657-201.225-3.558-411.823-96.344-592.992c-83.698,159.172-168.817,322.721-191.395,501.136
		c-17.763,140.366,4.769,282.322,44.422,417.115c6.138,20.867,28.517,94.25,44.107,145.267c2.404,26.645,5.078,53.265,7.948,79.86
		c0.906,8.4,1.843,16.796,2.787,25.191c-11.676,13.105-23.394,26.172-35.179,39.179c-51.344,56.659-104.772,111.2-157.208,166.813
		c-19.721,20.916-37.867,43.5-56.546,65.332c-55.464,64.829-110.025,130.534-166.603,194.396c-1.283,1.448-2.576,2.882-3.864,4.325
		c-0.781,0.874-4.087,4.267-0.969,1.125c-8.882,8.945,3.266,24.605,12.228,15.579c19.801-19.943,37.381-42.456,55.645-63.773
		c32.141-37.513,64.177-75.118,96.259-112.68c24.115-28.234,48.092-56.606,72.601-84.502c8.397-9.557,17.296-18.668,26.237-27.734
		c28.695-14.347,57.575-28.337,86.662-41.877c57.241,8.043,194.774,26.864,226.101,26.545
		c100.981-1.029,202.445-2.245,302.033-18.987c200.731-33.746,390.095-132.046,533.208-276.789
		c-177.354-29.78-359.31-59.539-535.848-25.247C927.054,1367.568,799.241,1433.325,683.584,1513.105z"/>
	<path style="fill:#006400;" d="M714.386,1390.63c77.355-26.715,154.176-55.008,230.129-85.493
		c12.423-4.986,24.814-10.054,37.188-15.159c60.975-25.156,121.355-51.749,180.951-80.02
		c71.9-34.108,142.652-70.626,212.059-109.557c72.055-40.413,142.683-83.372,211.826-128.581
		c73.219-47.873,144.781-98.258,214.874-150.595c9.237-6.896,18.447-13.829,27.634-20.79c10.185-7.717-2.074-23.273-12.228-15.579
		c-70.427,53.362-142.292,104.83-215.848,153.796c-68.443,45.56-138.328,88.957-209.715,129.755
		c-69.028,39.45-139.411,76.517-210.972,111.158c-64.471,31.212-129.891,60.436-196.027,87.931
		c-6.998,2.909-13.996,5.816-21.009,8.686c-73.793,30.201-148.448,58.263-223.655,84.736c20.562-24.381,40.94-48.917,61.14-73.597
		c24.915-30.441,49.567-61.096,73.938-91.97c107.34-135.98,209.463-276.135,305.283-420.473
		c94.044-141.666,182.097-287.451,261.471-437.858c9.465-17.936,18.795-35.945,28.003-54.011
		c5.783-11.348-12.67-18.551-18.416-7.277c-76.807,150.703-162.76,296.631-254.86,438.467
		c-93.777,144.416-193.998,284.647-299.418,420.785c-41.358,53.409-83.538,106.188-126.515,158.312
		c-22.553,27.353-45.322,54.532-68.322,81.51c-0.606,0.556-1.154,1.17-1.592,1.874c-23.569,27.624-47.385,55.035-71.423,82.249
		c-1.78-16.251-3.48-32.512-5.103-48.781c-5.114-51.286-9.374-102.656-12.147-154.122c-3.323-61.683-4.377-123.4-2.212-185.161
		c2.076-59.206,7.145-118.265,14.58-177.035c8.102-64.029,18.854-127.694,30.64-191.139c14.517-78.155,30.529-156.027,46.58-233.879
		c2.22-10.773,4.445-21.548,6.671-32.319c1.083-5.242-3.837-10.372-8.786-10.909c-5.74-0.622-9.822,3.532-10.908,8.786
		c-16.553,80.14-33.166,160.277-48.451,240.671c-12.37,65.067-23.841,130.334-32.727,195.976
		c-7.974,58.901-13.73,118.098-16.469,177.479c-2.865,62.105-2.439,124.322,0.322,186.423c2.06,46.374,5.408,92.68,9.58,138.912
		c2.404,26.645,5.078,53.265,7.948,79.86c0.906,8.4,1.843,16.796,2.787,25.191c-11.676,13.105-23.394,26.172-35.179,39.179
		c-51.344,56.659-104.772,111.2-157.208,166.813c-19.721,20.916-37.867,43.5-56.546,65.332
		c-55.464,64.829-110.025,130.534-166.603,194.396c-1.283,1.448-2.576,2.882-3.864,4.325c-0.781,0.874-4.087,4.267-0.969,1.125
		c-8.882,8.945,3.266,24.605,12.228,15.579c19.801-19.943,37.381-42.456,55.645-63.773c32.141-37.513,64.177-75.118,96.259-112.68
		c24.115-28.234,48.092-56.606,72.601-84.502c8.397-9.557,17.296-18.668,26.237-27.734c28.695-14.347,57.575-28.337,86.662-41.877
		c35.17-16.373,70.644-32.081,106.522-46.848c58.544-24.094,118.129-45.654,178.711-64.062
		c58.07-17.644,119.29-32.815,179.926-45.344c67.062-13.855,134.673-24.918,202.445-34.651
		c80.483-11.564,161.217-21.317,241.981-30.685c10.919-1.267,21.839-2.522,32.76-3.775c12.665-1.451,9.657-21.025-3.012-19.575
		c-83.185,9.531-166.349,19.35-249.285,30.864c-68.946,9.572-137.756,20.353-206.053,33.837
		c-62.018,12.243-123.531,26.88-184.242,44.507c-60.31,17.512-119.682,38.12-178.018,61.364
		c-40.34,16.074-80.179,33.371-119.613,51.546c-16.201,7.467-32.334,15.081-48.405,22.826
		c18.985-19.949,37.877-39.986,56.574-60.205C606.508,1514.555,661.046,1453.105,714.386,1390.63z"/>
</g>
</svg>
